HIERARCHY
ROOT Hips
{
	OFFSET 0.000000 0.000000 0.000000
	CHANNELS 6 Xposition Yposition Zposition Yrotation Xrotation Zrotation
	JOINT Chest
	{
		OFFSET 0.000000 -0.009281 11.569106
		CHANNELS 3 Yrotation Xrotation Zrotation
		JOINT Chest2
		{
			OFFSET -0.000000 0.016865 9.269641
			CHANNELS 3 Yrotation Xrotation Zrotation
			JOINT Chest3
			{
				OFFSET -0.000000 0.000001 8.374491
				CHANNELS 3 Yrotation Xrotation Zrotation
				JOINT Chest4
				{
					OFFSET -0.000000 0.000001 8.374493
					CHANNELS 3 Yrotation Xrotation Zrotation
					JOINT Neck
					{
						OFFSET -0.000000 0.000002 12.152554
						CHANNELS 3 Yrotation Xrotation Zrotation
						JOINT Head
						{
							OFFSET -0.000000 0.040101 7.802319
							CHANNELS 3 Yrotation Xrotation Zrotation
							End Site
							{
								OFFSET -0.000000 0.020947 14.853096
							}
						}
					}
					JOINT RightCollar
					{
						OFFSET 2.894404 0.000001 6.791374
						CHANNELS 3 Yrotation Xrotation Zrotation
						JOINT RightShoulder
						{
							OFFSET 13.574684 0.000001 0.000000
							CHANNELS 3 Yrotation Xrotation Zrotation
							JOINT RightElbow
							{
								OFFSET 23.923903 0.000002 0.000000
								CHANNELS 3 Yrotation Xrotation Zrotation
								JOINT RightWrist
								{
									OFFSET 19.846718 0.012767 0.000000
									CHANNELS 3 Yrotation Xrotation Zrotation
									End Site
									{
										OFFSET 14.973145 0.000001 0.000000
									}
								}
							}
						}
					}
					JOINT LeftCollar
					{
						OFFSET -2.894404 0.000001 6.791374
						CHANNELS 3 Yrotation Xrotation Zrotation
						JOINT LeftShoulder
						{
							OFFSET -13.574684 -0.000001 0.000000
							CHANNELS 3 Yrotation Xrotation Zrotation
							JOINT LeftElbow
							{
								OFFSET -23.923903 -0.000002 0.000000
								CHANNELS 3 Yrotation Xrotation Zrotation
								JOINT LeftWrist
								{
									OFFSET -19.846718 0.012763 0.000000
									CHANNELS 3 Yrotation Xrotation Zrotation
									End Site
									{
										OFFSET -14.973145 -0.000001 0.000000
									}
								}
							}
						}
					}
				}
			}
		}
	}
	JOINT RightHip
	{
		OFFSET 9.469263 0.004643 0.045487
		CHANNELS 3 Yrotation Xrotation Zrotation
		JOINT RightKnee
		{
			OFFSET 0.000000 0.002661 -40.478676
			CHANNELS 3 Yrotation Xrotation Zrotation
			JOINT RightAnkle
			{
				OFFSET 0.000000 0.049106 -35.224068
				CHANNELS 3 Yrotation Xrotation Zrotation
				JOINT RightToe
				{
					OFFSET -0.000001 12.539529 -6.151390
					CHANNELS 3 Yrotation Xrotation Zrotation
					End Site
					{
						OFFSET -0.000001 5.044994 -1.291870
					}
				}
			}
		}
	}
	JOINT LeftHip
	{
		OFFSET -9.469263 0.004641 0.045487
		CHANNELS 3 Yrotation Xrotation Zrotation
		JOINT LeftKnee
		{
			OFFSET 0.000000 0.002661 -40.478676
			CHANNELS 3 Yrotation Xrotation Zrotation
			JOINT LeftAnkle
			{
				OFFSET 0.000000 0.049106 -35.224068
				CHANNELS 3 Yrotation Xrotation Zrotation
				JOINT LeftToe
				{
					OFFSET -0.000001 12.539529 -6.151390
					CHANNELS 3 Yrotation Xrotation Zrotation
					End Site
					{
						OFFSET -0.000001 5.044994 -1.291870
					}
				}
			}
		}
	}
}
MOTION
Frames: 5
Frame Time: 0.016667
10.391107 4.209369 82.926712 -5.634179 -4.697535 -123.555062 0.360631 -4.037936 -0.159641 0.148270 -1.797757 0.039903 0.148270 -1.797757 0.039903 0.111311 -1.348309 0.030363 -1.508399 -20.875005 0.176113 -2.687911 -2.590901 -0.124747 5.799278 3.004086 2.944565 75.746477 -6.204668 24.763191 87.846212 -11.027128 44.826450 -20.572390 33.475864 -20.853846 -7.886867 -2.014701 -11.116670 -50.004013 -7.817876 -48.428463 2.810256 -20.138179 -5.980229 11.796885 -40.828617 -20.036963 0.653763 -7.850005 3.352124 -0.962632 -4.079164 0.161706 1.286028 4.370682 6.328444 -0.056945 -0.124245 -0.060130 -0.507260 -12.184538 4.505262 0.352309 -1.331505 9.433724 0.256153 6.268989 -0.155883 0.063016 0.150177 0.047190 
10.406518 4.212925 82.928665 -5.624019 -4.661239 -123.423035 0.356054 -4.037148 -0.136268 0.145831 -1.797384 0.048093 0.145831 -1.797384 0.048093 0.109506 -1.348027 0.036497 -1.482356 -20.827026 0.149833 -2.648805 -2.501981 -0.165712 5.777239 2.995094 2.953748 75.168110 -6.310326 26.037545 86.857193 -10.786017 45.255679 -17.915588 32.328105 -21.011649 -7.891899 -1.973337 -11.128206 -50.078209 -7.519054 -48.729688 2.485033 -19.588204 -6.356697 9.434974 -41.107377 -16.712629 0.629158 -7.878047 3.273779 -0.951588 -4.022516 0.100721 1.300835 4.377727 6.336547 -0.056361 -0.124722 -0.060493 -0.513587 -12.161913 4.472940 0.362649 -1.291147 9.392198 0.238311 6.224200 -0.212924 0.069791 0.153745 0.047222 
10.422301 4.218788 82.930183 -5.615424 -4.622097 -123.272142 0.355509 -4.023010 -0.121236 0.144986 -1.791116 0.052931 0.144986 -1.791116 0.052928 0.108886 -1.343325 0.040117 -1.461624 -20.796418 0.127694 -2.617981 -2.445308 -0.200375 5.755388 2.997171 2.981727 74.524795 -6.511677 27.319474 85.867164 -10.534917 45.752449 -15.434264 31.240828 -21.104627 -7.901702 -1.966649 -11.141727 -50.192659 -7.209212 -49.023300 2.110251 -18.776974 -6.680938 7.154009 -40.754431 -13.546306 0.607653 -7.906289 3.181698 -0.941716 -3.960420 0.052769 1.310821 4.379632 6.308974 -0.055054 -0.124807 -0.061891 -0.521393 -12.140364 4.436462 0.373408 -1.242253 9.337907 0.222632 6.174568 -0.270441 0.075783 0.154846 0.047745 
10.436294 4.222577 82.930786 -5.610870 -4.587014 -123.098655 0.361082 -4.002752 -0.112787 0.147038 -1.781591 0.054222 0.147038 -1.781591 0.054219 0.110427 -1.336180 0.041092 -1.451458 -20.783617 0.111006 -2.604565 -2.421722 -0.227914 5.713564 2.984461 3.026197 73.847514 -6.794307 28.614803 84.866159 -10.288346 46.342994 -13.519792 30.304788 -21.194962 -7.920312 -1.983117 -11.145586 -50.377816 -6.867194 -49.299667 1.560670 -17.443422 -7.041810 4.804344 -39.835330 -10.094004 0.591712 -7.946724 3.097443 -0.933269 -3.894832 -0.019798 1.320732 4.384287 6.268499 -0.052802 -0.124891 -0.062121 -0.520381 -12.123314 4.412394 0.383297 -1.191336 9.256017 0.202730 6.126514 -0.335220 0.082792 0.150611 0.049087 
10.448497 4.221796 82.931068 -5.603382 -4.545941 -122.904610 0.363254 -3.976678 -0.098267 0.147634 -1.769215 0.058604 0.147634 -1.769215 0.058600 0.110886 -1.326898 0.044375 -1.438897 -20.781412 0.089354 -2.588175 -2.417892 -0.263594 5.669303 2.943777 3.056280 73.132878 -7.033767 29.971512 83.744273 -10.062767 46.983761 -11.772476 29.383317 -21.130527 -7.931952 -2.049894 -11.156211 -50.667641 -6.449468 -49.621307 0.905201 -15.924649 -7.337542 2.756994 -39.268656 -6.867755 0.577778 -7.991804 3.010177 -0.927933 -3.812765 -0.100915 1.330037 4.383187 6.273352 -0.049999 -0.125709 -0.061281 -0.514673 -12.097890 4.378232 0.393536 -1.142659 9.155127 0.178984 6.077533 -0.393556 0.089334 0.145589 0.050140 
